<mxfile host="app.diagrams.net" agent="Mozilla/5.0 (Windows NT 10.0; Win64; x64; rv:133.0) Gecko/20100101 Firefox/133.0" version="26.0.4">
  <diagram name="Page-1" id="iVtya6uGyvRTXHMwtFO6">
    <mxGraphModel dx="1430" dy="782" grid="1" gridSize="10" guides="1" tooltips="1" connect="1" arrows="1" fold="1" page="1" pageScale="1" pageWidth="827" pageHeight="1169" math="0" shadow="0">
      <root>
        <mxCell id="0" />
        <mxCell id="1" parent="0" />
        <mxCell id="9pk9NbQXzydSW51D6Tqu-1" value=":utilisateur" style="rounded=0;whiteSpace=wrap;html=1;" vertex="1" parent="1">
          <mxGeometry x="80" y="80" width="170" height="40" as="geometry" />
        </mxCell>
        <mxCell id="9pk9NbQXzydSW51D6Tqu-5" value=":identification" style="rounded=0;whiteSpace=wrap;html=1;" vertex="1" parent="1">
          <mxGeometry x="80" y="447" width="160" height="40" as="geometry" />
        </mxCell>
        <mxCell id="9pk9NbQXzydSW51D6Tqu-6" value="" style="endArrow=classic;html=1;rounded=0;exitX=0.116;exitY=1;exitDx=0;exitDy=0;exitPerimeter=0;" edge="1" parent="1">
          <mxGeometry width="50" height="50" relative="1" as="geometry">
            <mxPoint x="159.43000000000004" y="120" as="sourcePoint" />
            <mxPoint x="159.71" y="447" as="targetPoint" />
            <Array as="points">
              <mxPoint x="159.71" y="210" />
            </Array>
          </mxGeometry>
        </mxCell>
        <mxCell id="9pk9NbQXzydSW51D6Tqu-9" value="(1a)indentifie()" style="text;html=1;align=center;verticalAlign=middle;whiteSpace=wrap;rounded=0;rotation=90;" vertex="1" parent="1">
          <mxGeometry x="160" y="250" width="60" height="30" as="geometry" />
        </mxCell>
        <mxCell id="9pk9NbQXzydSW51D6Tqu-21" value=":role" style="rounded=0;whiteSpace=wrap;html=1;" vertex="1" parent="1">
          <mxGeometry x="590" y="80" width="120" height="40" as="geometry" />
        </mxCell>
        <mxCell id="9pk9NbQXzydSW51D6Tqu-22" value="" style="endArrow=classic;html=1;rounded=0;exitX=1;exitY=0.5;exitDx=0;exitDy=0;entryX=0;entryY=0.5;entryDx=0;entryDy=0;" edge="1" parent="1" source="9pk9NbQXzydSW51D6Tqu-1" target="9pk9NbQXzydSW51D6Tqu-21">
          <mxGeometry width="50" height="50" relative="1" as="geometry">
            <mxPoint x="310" y="100" as="sourcePoint" />
            <mxPoint x="360" y="50" as="targetPoint" />
          </mxGeometry>
        </mxCell>
        <mxCell id="9pk9NbQXzydSW51D6Tqu-23" value="(1b)creeRole()" style="text;html=1;align=center;verticalAlign=middle;whiteSpace=wrap;rounded=0;" vertex="1" parent="1">
          <mxGeometry x="380" y="70" width="60" height="30" as="geometry" />
        </mxCell>
      </root>
    </mxGraphModel>
  </diagram>
</mxfile>
